<?xml version="1.0" encoding="utf-8"?>
<!-- Generator: Adobe Illustrator 24.0.2, SVG Export Plug-In . SVG Version: 6.00 Build 0)  -->
<svg version="1.1" id="레이어_1" xmlns="http://www.w3.org/2000/svg" xmlns:xlink="http://www.w3.org/1999/xlink" x="0px"
	 y="0px" viewBox="0 0 496.1 496.1" style="enable-background:new 0 0 496.1 496.1;" xml:space="preserve">
<style type="text/css">
	.st0{fill:#FFFFFF;}
	.st1{fill:none;}
	.st2{fill:#FFFFFF;stroke:#FFFFFF;stroke-miterlimit:10;}
	.st3{font-family:'NanumSquareOTFEB-KSCpc-EUC-H';}
	.st4{font-size:32px;}
</style>
<g>
	<path class="st0" d="M470.5,4.8c11.4,0,20.7,9.3,20.7,20.7v445c0,11.4-9.3,20.7-20.7,20.7h-445c-11.4,0-20.7-9.3-20.7-20.7v-445
		c0-11.4,9.3-20.7,20.7-20.7H470.5 M470.5,2.8h-445C13,2.8,2.8,13,2.8,25.5v445c0,12.5,10.2,22.7,22.7,22.7h445
		c12.5,0,22.7-10.2,22.7-22.7v-445C493.2,13,483,2.8,470.5,2.8L470.5,2.8z"/>
</g>
<rect x="113.3" y="427.7" class="st1" width="279.7" height="34.3"/>
<text transform="matrix(1 0 0 1 130.8955 453.2539)" class="st2 st3 st4">InssTek MX-Lab</text>
</svg>
